<svg width="374" height="210" viewBox="0 0 374 210" fill="none" xmlns="http://www.w3.org/2000/svg">
<g filter="url(#filter0_d_69155_729)">
<path fill-rule="evenodd" clip-rule="evenodd" d="M266.597 19.6571C251.213 25.1509 247.373 29.9794 243.266 35.1432C239.942 39.323 236.443 43.7226 226.506 48.8726C226.196 48.9277 225.886 48.9844 225.575 49.0426C206.423 52.6264 181.45 62.7356 156.144 76.3074C166.483 68.4471 173.524 64.6631 182.48 62.3562C191.611 60.004 201.585 55.4149 210.027 51.5311C216.578 48.5168 222.207 45.9274 225.8 45.1383C234.024 43.3326 174.404 42.2567 159.581 62.933C155.233 68.9977 147.2 77.6329 138.889 86.0693C118.86 97.995 99.164 111.816 82.503 126.157C84.8607 114.888 88.7293 99.77 103.763 93.1296C129.905 81.5826 194.024 35.8889 154.974 57.3813C141.504 64.7951 125.186 71.1991 110.087 77.1244C81.4148 88.3766 57.1417 97.9023 65.1294 109.338C71.6395 118.658 71.5817 126.157 71.5412 131.427C71.5278 133.168 71.5163 134.665 71.7439 135.905C71.6327 136.011 71.5216 136.118 71.4107 136.224C63.5844 143.742 56.6706 151.381 51.1031 158.948C48.0648 149.507 50.6154 143.6 53.0365 137.992C55.9739 131.188 58.7205 124.826 51.063 113.132C46.8065 100.123 62.3022 89.7509 72.0976 83.1945C78.3125 79.0346 82.2328 76.4107 77.3574 75.6235C64.798 73.5958 7.49775 116.588 19.6784 135.19C21.4259 137.858 38.031 157.36 47.1626 164.645C46.719 165.331 46.2876 166.016 45.8686 166.699C39.7353 176.708 36.0064 186.9 36.4506 196.611L46.4402 196.154C46.1242 189.246 48.7858 181.078 54.3951 171.924C59.2096 164.067 66.0054 155.796 74.3003 147.413C87.4241 149.773 120.629 151.321 125.364 151.352C156.879 151.556 183.043 111.049 180.144 104.51C178.291 100.33 176.892 102.501 174.027 106.946C169.42 114.091 161.025 127.115 140.865 129.08C114.203 128.439 104.716 132.637 95.0317 136.923C90.4312 138.959 85.786 141.015 79.2337 142.581C86.1594 135.997 93.8874 129.436 102.143 123.043C114.301 123.341 134.195 122.823 137.073 122.609C160.05 120.896 174.659 93.3813 171.882 88.0754C170.941 86.2782 170.354 87.383 169.078 89.7875C166.586 94.4819 161.464 104.13 145.943 106.809C131.498 107.885 126.411 110.548 120.971 113.395C117.572 115.175 114.035 117.027 107.99 118.608C122.251 108.01 137.822 97.9846 153.397 89.2255C156.138 87.6837 158.875 86.1837 161.601 84.7289C168.865 83.4776 178.25 83.2804 186.228 89.6354C195.257 99.1543 201.09 100.868 207.328 102.7C212.823 104.315 218.633 106.022 227.219 113.238C245.551 128.647 212.547 87.975 209.363 84.6179C202.41 77.2882 189.182 75.8719 177.002 76.9316C179.927 75.5329 182.821 74.1969 185.677 72.9279C195.376 71.4302 208.283 70.591 216.627 79.9793C229.781 102.498 273.853 129.041 258.085 110.678C247.53 98.3859 248.003 94.7758 248.853 88.291C249.272 85.0886 249.784 81.1852 249.105 75.1888C248.046 65.8436 228.755 62.9376 209.818 63.5177C216.151 61.445 222.064 59.873 227.414 58.872C237.32 57.0182 244.401 57.3013 248.586 59.1254C250.528 59.9718 251.718 61.0903 252.44 62.4362C253.189 63.8322 253.676 65.9281 253.377 69.0938C252.635 76.9655 254.623 83.6247 259.337 88.5908C263.121 92.5769 268.279 95.0649 274.1 96.467C278.498 100.404 281.448 105.568 278.455 112.472C264.185 132.795 263.529 171.899 272.313 152.653C278.193 139.77 281.941 137.881 288.675 134.488C292 132.813 296.054 130.77 301.451 126.856C310.194 120.515 301.084 107.852 289.128 97.9689C294.279 97.918 299.813 97.3998 305.607 96.4705C313.732 97.9417 323.216 100.178 331.004 104.313C349.654 114.215 392.995 72.5441 386.277 76.3774C384.058 77.644 381.079 77.89 377.443 78.1903C370.074 78.799 360.006 79.6305 348.091 89.6303C339.374 96.9454 325.674 96.7027 313.508 94.9859C319.71 93.6578 326.131 91.9175 332.631 89.827C346.576 85.3426 361.177 79.1537 375.198 71.6617C391.741 73.8898 437.172 74.1935 442.86 73.8748C481.178 71.7276 508.206 12.3901 503.915 3.36127C501.172 -2.40958 499.727 0.770026 496.768 7.28093C492.011 17.7479 483.341 36.8243 459.076 41.1642C434.988 42.514 426.29 47.7982 416.988 53.4494C409.575 57.953 401.779 62.6898 385.503 65.854C394.705 60.387 403.506 54.3735 411.527 47.9362C432.001 44.7371 487.227 17.5231 479.788 6.65331C475.953 1.05043 473.687 -11.404 471.914 -21.1477C471.324 -24.3919 470.789 -27.3355 470.268 -29.6257C476.054 -32.1227 479.232 -34.3809 476.425 -36.8168C467.63 -44.4499 383.776 -11.2536 390.552 4.77075C393.596 11.9678 393.778 27.2916 393.921 39.28L393.921 39.2842C393.962 42.7034 394 45.8512 394.099 48.4615C389.301 51.7907 384.303 54.9706 379.175 57.9767C376.711 47.7226 379.906 41.8694 382.931 36.3282C386.42 29.9371 389.683 23.961 383.774 12.1266C381.174 -0.852409 399.96 -11.7122 410.267 -17.6708C416.679 -21.3774 419.81 -23.1874 412.473 -22.4315C400.993 -21.2488 342.578 12.5596 351.977 31.3846C353.286 34.0046 365.981 52.8981 373.831 61.022C359.364 69.0321 344.095 75.6359 329.57 80.3072C309.62 86.7226 291.691 89.2917 279.393 87.3304C274.648 86.5736 271.068 85.1952 268.53 83.3811C270.901 83.05 273.565 82.6588 276.463 82.2333L276.466 82.233C287.237 80.6514 301.245 78.5945 315.534 77.3726C355.52 73.9529 350.398 20.841 345.135 14.0528C341.772 9.71402 341.415 12.4267 340.684 17.9815C339.509 26.9115 337.368 43.1865 320.215 49.3183C301.579 53.2235 296.283 58.0795 290.107 63.7413C285.249 68.1955 279.847 73.1485 266.978 78.5297C266.241 78.8379 265.546 79.1319 264.894 79.4123C263.599 77.1064 262.951 74.0844 263.333 70.0327C263.763 65.473 263.169 61.2808 261.252 57.7086C261.076 57.3795 260.89 57.0595 260.695 56.7484C278.133 56.3889 299.591 51.9096 312.082 38.8082C317.15 33.4929 364.773 -20.7616 342.807 -4.4753C334.715 1.52456 328.43 4.30787 322.219 7.05839C311.57 11.7741 301.14 16.3934 282.192 36.9606C270.939 46.6244 259.393 48.8949 250.246 49.0872C249.145 48.7397 247.994 48.4581 246.799 48.2377C256.68 45.5624 265.717 42.8911 267.607 42.2161C292.078 33.4771 288.672 -6.98005 282.618 -11.4986C278.749 -14.3867 278.933 -12.2195 279.312 -7.78155C279.919 -0.64712 281.027 12.3556 266.597 19.6571ZM443.945 19.0171C443.114 24.4328 435.908 29.0858 427.826 33.0741C442.154 18.0468 452.012 1.07371 452.8 -16.6789L442.81 -17.1221C441.947 2.3218 427.372 22.3792 405.334 40.0841C403.801 41.3158 402.236 42.5319 400.644 43.7315C405.906 29.0553 412.888 20.3525 418.906 12.8506C423.961 6.54993 428.336 1.09645 430.442 -6.33721C433.039 -15.5068 448.843 -21.4398 461.422 -26.1621C462.926 -26.7268 464.384 -27.2742 465.768 -27.8077C465.724 -27.5854 465.679 -27.3569 465.633 -27.1222C462.906 -13.0019 457.089 -4.66771 452.126 2.44164C448.253 7.9901 444.901 12.7925 443.945 19.0171Z" fill="#99A195" fill-opacity="0.58" shape-rendering="crispEdges"/>
</g>
<defs>
<filter id="filter0_d_69155_729" x="17.9902" y="-37.9399" width="486.372" height="234.551" filterUnits="userSpaceOnUse" color-interpolation-filters="sRGB">
<feFlood flood-opacity="0" result="BackgroundImageFix"/>
<feColorMatrix in="SourceAlpha" type="matrix" values="0 0 0 0 0 0 0 0 0 0 0 0 0 0 0 0 0 0 127 0" result="hardAlpha"/>
<feOffset/>
<feComposite in2="hardAlpha" operator="out"/>
<feColorMatrix type="matrix" values="0 0 0 0 0 0 0 0 0 0 0 0 0 0 0 0 0 0 0.25 0"/>
<feBlend mode="normal" in2="BackgroundImageFix" result="effect1_dropShadow_69155_729"/>
<feBlend mode="normal" in="SourceGraphic" in2="effect1_dropShadow_69155_729" result="shape"/>
</filter>
</defs>
</svg>
